<?xml version="1.0" standalone="no"?>
<!DOCTYPE svg PUBLIC "-//W3C//DTD SVG 20010904//EN"
 "http://www.w3.org/TR/2001/REC-SVG-20010904/DTD/svg10.dtd">
<svg version="1.0" xmlns="http://www.w3.org/2000/svg"
 width="300.000000pt" height="300.000000pt" viewBox="0 0 300.000000 300.000000"
 preserveAspectRatio="xMidYMid meet">
<metadata>
Created by potrace 1.11, written by Peter Selinger 2001-2013
</metadata>
<g transform="translate(0.000000,300.000000) scale(0.100000,-0.100000)"
fill="#000000" stroke="none">
<path d="M789 2058 c-1 -89 -4 -111 -31 -213 -39 -148 -106 -284 -159 -322
-13 -10 -16 -22 -12 -51 7 -55 -20 -151 -72 -251 -39 -76 -51 -91 -89 -109
-24 -12 -52 -22 -62 -22 -18 0 -19 -9 -19 -115 l-1 -114 71 7 c86 8 347 9 436
0 l67 -6 0 114 -1 114 -30 0 c-16 0 -48 5 -69 12 -38 11 -40 13 -34 46 7 45
40 80 88 92 41 12 239 15 284 5 87 -19 122 -56 115 -121 -2 -16 -47 -34 -86
-34 l-34 0 0 -115 0 -114 77 7 c101 9 393 9 507 -1 l90 -8 0 115 0 114 -35 6
c-64 11 -110 41 -137 87 -73 128 -113 270 -86 309 8 11 10 20 5 20 -20 0 -64
57 -97 124 -61 126 -99 285 -100 422 l0 71 -28 -8 c-70 -20 -326 -28 -449 -14
-32 4 -61 7 -65 7 -5 0 -16 4 -25 9 -16 9 -18 3 -19 -63z m304 -344 c102 -243
91 -286 -73 -285 -68 0 -77 3 -98 26 -17 21 -21 35 -18 69 5 44 35 132 80 229
14 31 28 68 32 82 4 15 10 23 14 18 5 -4 33 -67 63 -139z"/>
<path d="M1933 2053 c2 -42 1 -94 -3 -115 -4 -21 -5 -38 -1 -39 3 0 28 -2 54
-4 56 -4 107 -31 124 -66 12 -23 11 -196 -1 -255 -5 -27 -28 -64 -39 -64 -4 0
2 -12 13 -28 23 -31 28 -59 35 -192 8 -142 -19 -182 -133 -199 l-47 -6 4 -45
c7 -76 7 -94 0 -137 l-6 -42 81 7 c107 9 459 9 564 -1 l84 -7 -8 33 c-8 36 -7
104 2 158 l5 37 -39 0 c-57 1 -109 26 -131 63 -18 29 -20 46 -16 134 6 130 15
176 43 208 8 9 10 17 5 17 -11 0 -29 38 -39 80 -12 55 -12 225 1 250 19 38 61
56 135 59 12 1 15 20 15 112 l0 110 -50 -5 c-117 -13 -176 -17 -280 -18 -129
-1 -304 10 -346 22 l-30 9 4 -76z"/>
</g>
</svg>
